<?xml version="1.0" encoding="UTF-8" standalone="no"?><svg xmlns="http://www.w3.org/2000/svg" xmlns:xlink="http://www.w3.org/1999/xlink" fill="#191c99" height="474.5" preserveAspectRatio="xMidYMid meet" version="1" viewBox="16.0 18.8 480.0 474.5" width="480" zoomAndPan="magnify"><g id="change1_1"><path d="M16,256c0-30.05382,5.56896-58.82729,15.70237-85.36405h97.06304c-4.35283,27.15825-6.62508,55.90865-6.62508,85.36405,0,28.46683,2.11543,56.28088,6.18643,82.63031H30.66113c-9.4808-25.77347-14.66113-53.60817-14.66113-82.63031Zm135.98678,0c0-29.64606,2.40644-58.44079,7.00566-85.36405h82.08433v167.99435h-82.54795c-4.2997-26.13431-6.54204-53.98678-6.54204-82.63031ZM326.57684,82.05178c8.18497,17.54296,14.97006,37.33235,20.24345,58.73773h-75.89706V18.76531c20.23343,7.41986,39.92422,29.57198,55.65362,63.28647ZM241.07678,18.76531v122.02419h-75.89706c5.27339-21.40538,12.05848-41.19477,20.24345-58.73773,15.72939-33.71449,35.42019-55.8666,55.65362-63.28647Zm0,349.71144v124.75793c-20.23343-7.41986-39.92422-29.57198-55.65362-63.28647-8.53193-18.28651-15.54002-39.0168-20.90282-61.47146h76.55644Zm29.84645,124.75793v-124.75793h76.55644c-5.36281,22.45467-12.37089,43.18496-20.90282,61.47146-15.72939,33.71449-35.42019,55.8666-55.65362,63.28647Zm0-154.60438V170.63595h82.08433c4.59922,26.92325,7.00566,55.71798,7.00566,85.36405,0,28.64353-2.24234,56.49599-6.54204,82.63031h-82.54795Zm112.31136-167.99435h97.06304c10.13341,26.53675,15.70237,55.31023,15.70237,85.36405,0,29.02214-5.18033,56.85684-14.66113,82.63031h-97.66564c4.07101-26.34942,6.18643-54.16348,6.18643-82.63031,0-29.45539-2.27225-58.20579-6.62508-85.36405Zm83.249-29.84645h-89.02168c-5.94863-26.06312-13.9487-50.16246-23.83732-71.35713-7.66913-16.43735-16.24265-30.60214-25.53005-42.36262,59.38822,18.7436,108.86891,60.00288,138.38905,113.71975ZM183.90547,27.06976c-9.28739,11.76048-17.86091,25.92528-25.53005,42.36262-9.88862,21.19467-17.8887,45.29401-23.83732,71.35713H45.51642C75.03656,87.07264,124.51725,45.81335,183.90547,27.06976ZM44.04366,368.47675h89.87021c6.00738,27.11605,14.22719,52.15508,24.46155,74.09087,7.66913,16.43735,16.24265,30.60214,25.53005,42.36262-60.39075-19.05996-110.53165-61.40512-139.86181-116.45349Zm284.05087,116.45349c9.28739-11.76048,17.86091-25.92528,25.53005-42.36262,10.23436-21.93579,18.45418-46.97482,24.46155-74.09087h89.87021c-29.33015,55.04836-79.47105,97.39353-139.86181,116.45349Z"/></g></svg>