<?xml version="1.0" encoding="UTF-8" standalone="no"?><svg xmlns="http://www.w3.org/2000/svg" xmlns:xlink="http://www.w3.org/1999/xlink" fill="#000000" height="504.2" preserveAspectRatio="xMidYMid meet" version="1" viewBox="0.0 0.0 469.7 504.2" width="469.7" zoomAndPan="magnify"><g id="change1_1"><path d="M0,0v129.39h149.83V335.1c0,23.06,8.98,44.75,25.29,61.05c16.31,16.31,37.99,25.29,61.05,25.29 s44.75-8.98,61.05-25.29c16.31-16.3,25.29-37.99,25.29-61.05V129.39h147.15V0H0z M423,82.73H275.84V335.1 c0,21.88-17.8,39.68-39.68,39.68s-39.68-17.8-39.68-39.68V82.73H46.66V46.66H423V82.73z M405.24,159.56V335.1 c0,22.81-4.47,44.96-13.3,65.82c-8.52,20.14-20.7,38.21-36.22,53.73c-15.52,15.52-33.6,27.71-53.73,36.22 c-20.86,8.82-43,13.3-65.82,13.3c-22.81,0-44.96-4.47-65.82-13.3c-20.14-8.52-38.21-20.7-53.73-36.22 c-15.52-15.52-27.71-33.6-36.22-53.73c-8.82-20.86-13.3-43-13.3-65.82V159.56h46.66V335.1c0,32.7,12.73,63.44,35.85,86.56 c23.12,23.12,53.86,35.85,86.56,35.85h0c32.7,0,63.44-12.73,86.56-35.85c23.12-23.12,35.85-53.86,35.85-86.56V159.56H405.24z" fill="#ffffff"/></g></svg>