<?xml version="1.0" encoding="UTF-8" standalone="no"?><svg xmlns="http://www.w3.org/2000/svg" xmlns:xlink="http://www.w3.org/1999/xlink" fill="#191c99" height="30" preserveAspectRatio="xMidYMid meet" version="1" viewBox="9.0 17.0 45.9 30.0" width="45.9" zoomAndPan="magnify"><g id="change1_1"><path d="M52.6,18.6c-1.4-1.1-3.2-1.6-4.9-1.6H16.3c-2.1,0-3.7,0.6-4.9,1.6l1.8,1.2l13.5,8.7c0.1,0,0.2,0.1,0.4,0.2c0,0,0,0,0,0 l4.9,3.2l18.8-12.2L52.6,18.6z" fill="inherit"/><path d="M9.1,39.8c0,1.6,0.4,3.3,1.5,4.6l1.4-1.4l12.8-13.3l-13-8.4l-1.7-1.1c-0.7,1.2-1.1,2.7-1.1,4.1V39.8z" fill="inherit"/><path d="M50.6,44.3L37.5,30.7l-5,3.2c0,0,0,0,0,0c-0.1,0-0.1,0.1-0.2,0.1c0,0-0.1,0-0.1,0c-0.1,0-0.2,0-0.2,0c0,0,0,0,0,0 c0,0,0,0,0,0s0,0,0,0c0,0,0,0,0,0c-0.1,0-0.2,0-0.2,0c0,0-0.1,0-0.1,0c-0.1,0-0.1,0-0.2-0.1c0,0,0,0,0,0l-5-3.2L13.4,44.3L12,45.8 c1.1,0.7,2.5,1.2,4.3,1.2h31.4c1.5,0,3-0.4,4.3-1.2L50.6,44.3z" fill="inherit"/><path d="M52.2,21.2l-13,8.4L52.1,43l1.4,1.5c0.9-1.1,1.4-2.6,1.4-4.6V24.2c0-1.7-0.4-3-1-4.1L52.2,21.2z" fill="inherit"/></g></svg>